<svg xmlns="http://www.w3.org/2000/svg" version="1.1" width="120" height="70" viewBox="0 0 120 70">
  <g id="Layer_1" transform="translate(-5.7,-27.699)">
    <g>
      <path d="M101.408,42.16 C101.003,42.429 100.461,42.429 100.055,42.16 C99.391,41.719 99.327,40.797 99.863,40.264 C100.339,39.771 101.124,39.771 101.6,40.263 C102.135,40.797 102.07,41.719 101.408,42.16 M103.344,39.473 C104.116,42.757 101.164,45.71 97.88,44.938 C96.208,44.546 94.881,43.219 94.488,41.548 C93.718,38.266 96.669,35.315 99.952,36.084 C101.623,36.475 102.951,37.801 103.344,39.473 M81.232,57.135 C81.607,57.674 81.919,58.195 82.094,58.716 C82.218,59.086 82.377,59.574 82.742,59.77 C82.762,59.781 82.78,59.791 82.802,59.797 C83.472,60.041 85.195,60 85.195,60 L88.364,60 C88.635,60.004 91.016,59.997 90.956,59.731 C90.669,58.458 89.197,58.23 88.076,57.564 C87.043,56.948 86.063,56.25 85.619,55.049 C85.387,54.429 85.524,52.999 85.923,52.478 C86.214,52.101 86.643,51.851 87.104,51.75 C87.615,51.641 88.145,51.735 88.656,51.787 C89.286,51.851 89.908,51.965 90.536,52.043 C91.748,52.201 92.972,52.264 94.194,52.231 C96.211,52.175 98.233,51.854 100.145,51.202 C101.48,50.754 102.795,50.148 103.93,49.305 C105.22,48.346 104.881,48.436 103.573,48.57 C102.007,48.73 100.427,48.754 98.856,48.661 C97.39,48.576 95.944,48.403 94.618,47.722 C93.574,47.183 92.677,46.643 91.849,45.808 C91.725,45.682 91.648,45.314 91.875,45.079 C92.095,44.851 92.561,44.983 92.704,45.105 C94.148,46.312 96.302,47.306 98.532,47.414 C99.738,47.474 100.911,47.496 102.118,47.444 C102.721,47.416 103.631,47.42 104.236,47.414 C104.548,47.41 105.399,47.5 105.558,47.169 C105.606,47.073 105.602,46.962 105.598,46.854 C105.421,42.028 105.064,36.585 100.014,34.278 C96.246,32.555 90.597,29.886 88.211,28.779 C87.658,28.516 87.011,28.932 87.011,29.548 C87.011,31.16 87.093,33.476 87.094,35.584 C85.951,34.42 84.026,33.685 82.559,33.011 C80.893,32.247 79.173,31.599 77.423,31.054 C73.9,29.963 70.254,29.291 66.587,28.927 C62.428,28.512 58.199,28.711 54.104,29.557 C47.36,30.955 40.731,34.198 35.699,38.941 C32.61,41.851 30.186,45.988 30.022,50.187 C29.788,56.13 31.453,59.321 34.513,62.61 C39.393,67.852 49.896,68.586 54.15,62.37 C56.064,59.572 56.479,55.777 55.09,52.684 C53.701,49.593 50.508,47.359 47.123,47.245 C44.496,47.158 41.697,48.494 40.69,50.923 C39.922,52.778 40.359,55.07 41.758,56.51 C42.303,57.072 43.041,57.532 43.847,57.352 C44.322,57.246 44.719,56.889 44.791,56.407 C44.897,55.696 44.275,55.235 43.892,54.689 C43.201,53.704 43.341,52.225 44.206,51.388 C44.936,50.681 46.017,50.472 47.033,50.475 C47.979,50.477 48.946,50.646 49.762,51.123 C50.909,51.798 51.671,53.034 51.935,54.34 C52.722,58.243 49.549,61.414 45.247,61.663 C43.046,61.793 40.806,61.215 39.088,59.832 C34.737,56.332 33.671,49.178 38.644,45.359 C43.365,41.734 49.325,42.668 52.839,44.552 C55.651,46.059 57.747,48.525 59.335,51.251 C60.132,52.622 60.811,54.055 61.441,55.51 C62.047,56.909 62.614,58.319 63.827,59.344 C64.63,60.024 65.621,60 66.673,60 L72.678,60 C73.494,60 73.295,59.456 72.943,59.096 C72.147,58.282 71.003,58.098 69.944,57.807 C67.523,57.141 67.77,53.936 68.44,53.936 C70.604,53.936 70.672,54.001 72.568,53.977 C75.304,53.939 76.132,53.78 78.272,54.571 C79.416,54.995 80.515,56.113 81.232,57.135" fill="#30BA78"></path>
    </g>

    <!-- Text aligned with x=65 -->
    <text x="30" y="83" font-family="Arial, Helvetica, sans-serif" font-size="20" fill="#30BA78" font-weight="bold" text-anchor="start">
      SUSE AI
    </text>
  </g>
</svg>
