<svg xmlns="http://www.w3.org/2000/svg" viewBox="28 2 80 44" fill="none">
  <path
    d="M101.408 14.461c-.405.27-.947.27-1.353 0-.664-.44-.728-1.362-.192-1.894.476-.494 1.261-.494 1.737 0 .535.534.47 1.456-.192 1.896Zm1.936-2.688c.772 3.284-2.18 6.237-5.464 5.465-1.672-.392-2.999-1.718-3.392-3.39-.77-3.283 2.181-6.234 5.464-5.465 1.671.392 2.999 1.718 3.392 3.39ZM81.232 32.436c.375.539.687 1.06.862 1.58.124.37.283.858.648 1.054.02.01.038.02.06.026.67.244 2.393.203 2.393.203h3.169c.271.004 2.652-.003 2.592-.269-.287-1.273-1.759-1.501-2.88-2.167-1.033-.616-2.013-1.314-2.457-2.515-.232-.62-.095-2.05.304-2.571.291-.377.72-.627 1.181-.728.511-.109 1.041-.015 1.552.037.63.064 1.252.178 1.88.256 1.212.158 2.436.221 3.658.188 2.017-.056 4.039-.377 5.951-1.029 1.335-.448 2.65-1.054 3.785-1.897 1.29-.959.951-.869-.357-1.003-1.566-.16-3.146-.184-4.717-.277-1.466-.085-2.912-.258-4.238-.939-1.044-.539-1.941-1.079-2.769-1.914-.124-.126-.201-.494.026-.729.22-.228.686-.096.829.026 1.444 1.207 3.598 2.201 5.828 2.309 1.206.06 2.379.082 3.586.03.603-.028 1.513-.024 2.118-.03.312-.004 1.163.086 1.322-.245.048-.096.044-.207.04-.315-.177-4.826-.534-10.269-5.584-12.576-3.768-1.723-9.417-4.392-11.803-5.499-.553-.263-1.2.153-1.2.769 0 1.612.082 3.928.083 6.036-1.143-1.164-3.068-1.899-4.535-2.573-1.666-.764-3.386-1.412-5.136-1.957-3.523-1.091-7.169-1.763-10.836-2.127-4.159-.415-8.388-.216-12.483.63-6.744 1.398-13.373 4.641-18.405 9.384-3.089 2.91-5.513 7.047-5.677 11.246-.234 5.943 1.431 9.134 4.491 12.423 4.88 5.242 15.383 5.976 19.637-.24 1.914-2.798 2.329-6.593.94-9.686-1.389-3.091-4.582-5.325-7.967-5.439-2.627-.087-5.426 1.249-6.433 3.678-.768 1.855-.331 4.147 1.068 5.587.545.562 1.283 1.022 2.089.842.475-.106.872-.463.944-.945.106-.711-.516-1.172-.899-1.718-.691-.985-.551-2.464.314-3.301.73-.707 1.811-.916 2.827-.913.946.002 1.913.171 2.729.648 1.147.675 1.909 1.911 2.173 3.217.787 3.903-2.386 7.074-6.688 7.323-2.201.13-4.441-.448-6.159-1.831-4.351-3.5-5.417-10.654-.444-14.473 4.721-3.625 10.681-2.691 14.195-.807 2.812 1.507 4.908 3.973 6.496 6.699.797 1.371 1.476 2.804 2.106 4.259.606 1.399 1.173 2.809 2.386 3.834.803.68 1.794.656 2.846.656h6.005c.816 0 .617-.544.265-.904-.796-.814-1.94-.998-2.999-1.289-2.421-.666-2.174-3.871-1.504-3.871h4.128c2.736-.038 3.564-.197 5.704.594 1.144.424 2.243 1.542 2.96 2.564Z"
    fill="#fff"
  />
</svg>
